<?xml version="1.0" encoding="utf-8"?>
<!-- Generator: Adobe Illustrator 15.1.0, SVG Export Plug-In . SVG Version: 6.00 Build 0)  -->
<!DOCTYPE svg PUBLIC "-//W3C//DTD SVG 1.1//EN" "http://www.w3.org/Graphics/SVG/1.1/DTD/svg11.dtd">
<svg version="1.1" id="Layer_1" xmlns="http://www.w3.org/2000/svg" xmlns:xlink="http://www.w3.org/1999/xlink" x="0px" y="0px"
	 width="100px" height="94.272px" viewBox="0 0 100 94.272" enable-background="new 0 0 100 94.272" xml:space="preserve">
<path fill="#010101" d="M67.515,16.756c4.629,0,8.375-3.752,8.375-8.378C75.89,3.752,72.144,0,67.515,0
	c-4.63,0-8.376,3.752-8.376,8.378C59.139,13.004,62.885,16.756,67.515,16.756z"/>
<path fill="#010101" d="M70.436,62.281c6.465,0.848,10.118,1.283,12.493,1.289c0.813,0.093,1.639,0.047,2.457-0.174
	c0.65-0.169,1.249-0.441,1.801-0.79c0.006,0,0.006,0,0.012,0l0,0c2.84-1.777,4.269-5.634,3.241-9.502l-8.057-30.438
	c-1.231-4.62-5.471-7.507-9.484-6.444c-1.864,0.494-3.34,1.757-4.28,3.424l-13.766,4.958l-19.432-1.133l2.126-4.56l-0.68-0.319
	l-2.253,4.833l-0.648-0.038c-1.173-0.07-2.21,1.344-2.317,3.156c-0.003,0.059,0.003,0.113,0,0.172L7.112,15.905l-1.136,2.579
	l54.121,23.837l1.133-2.579L39.815,30.31l15.491,0.9c0.116,0.021,0.238,0.032,0.359,0.023l0.151,0.009
	c0.395,0.023,0.767-0.131,1.092-0.398l11.036-3.97l6.47,24.45l-11.674-0.871l-13.04-0.822c-2.006,0-3.299,1.002-4.01,2.75
	l-0.357,2.245v34.57c0,2.648,2.146,4.792,4.789,4.792s4.786-2.144,4.786-4.792l-0.049-28.82L70.436,62.281z"/>
<polygon fill="#010101" points="31.565,32.151 49.027,39.809 49.692,38.291 14.105,22.678 13.438,24.197 27.76,30.481 26.12,30.481 
	26.12,88.587 0,88.587 0,93.239 42.426,93.239 42.426,88.587 31.565,88.587 "/>
<path fill="#010101" d="M98.223,64.116h-0.784V49.703l1.242-11.346c0.1-0.944-0.824-1.821-2.067-1.958
	c-1.237-0.134-2.329,0.52-2.428,1.466l-2.172,19.786c-0.105,0.946,0.824,1.823,2.062,1.957c0.552,0.058,1.062-0.041,1.481-0.244
	v4.751H67.364c-0.987,0-1.777,0.895-1.777,2.004s0.79,2.004,1.777,2.004h13.405v19.608l-9.479,0.912l0.104,1.133
	c-0.017,0-0.034-0.012-0.058-0.012c-1.243,0-2.254,1.011-2.254,2.254s1.011,2.253,2.254,2.253s2.254-1.01,2.254-2.253
	c0-0.477-0.151-0.93-0.413-1.29l7.592-0.731v3.99h3.009v-4.043l8.154,0.784c-0.255,0.366-0.412,0.813-0.412,1.29
	c0,1.243,1.005,2.253,2.248,2.253c1.248,0,2.253-1.01,2.253-2.253s-1.005-2.254-2.253-2.254c-0.035,0-0.07,0.012-0.104,0.012
	l0.104-1.133l-9.99-0.958V68.124h14.445c0.981,0,1.776-0.895,1.776-2.004S99.205,64.116,98.223,64.116z"/>
</svg>
