<svg xmlns="http://www.w3.org/2000/svg" xmlns:xlink="http://www.w3.org/1999/xlink" version="1.1" id="Layer_1" x="0px" y="0px" width="100px" height="100px" viewBox="0 0 100 100" enable-background="new 0 0 100 100" xml:space="preserve">
<circle fill="none" cx="50.266" cy="72.504" r="1.846"/>
<path d="M6.773,15.67v49.025H61.83V15.67H6.773z M42.061,40.271v1.462h-23.71v-1.462H42.061z M33.487,39.324H18.351v-1.462h15.136  V39.324z M13.155,20.572h4.169v1.462h-4.169V20.572z M13.155,23.035h10.391v1.462H13.155V23.035z M13.155,25.497H27.01v1.462H13.155  V25.497z M13.155,27.959h10.391v1.462H13.155V27.959z M13.155,30.422h10.391v1.462H13.155V30.422z M13.155,32.884h4.169v1.462  h-4.169V32.884z M13.155,35.347h6.97v1.462h-6.97V35.347z M13.155,37.862h4.169v1.462h-4.169V37.862z M13.155,40.271h4.169v1.462  h-4.169V40.271z M13.155,42.734h4.169v1.462h-4.169V42.734z M13.155,45.196h33.214v1.462H13.155V45.196z M13.155,47.659h4.169v1.462  h-4.169V47.659z M12.156,58.971h-1.264v-1.463h1.264V58.971z M12.156,56.508h-1.264v-1.462h1.264V56.508z M12.156,54.046h-1.264  v-1.462h1.264V54.046z M12.156,51.584h-1.264v-1.463h1.264V51.584z M12.156,49.121h-1.264v-1.462h1.264V49.121z M12.156,46.658  h-1.264v-1.462h1.264V46.658z M12.156,44.196h-1.264v-1.462h1.264V44.196z M12.156,41.733h-1.264v-1.462h1.264V41.733z   M12.156,39.271h-1.264v-1.462h1.264V39.271z M12.156,36.809h-1.264v-1.462h1.264V36.809z M12.156,34.346h-1.264v-1.462h1.264  V34.346z M12.156,31.884h-1.264v-1.462h1.264V31.884z M12.156,29.421h-1.264v-1.462h1.264V29.421z M12.156,26.959h-1.264v-1.462  h1.264V26.959z M12.156,24.497h-1.264v-1.462h1.264V24.497z M12.156,22.034h-1.264v-1.462h1.264V22.034z M20.125,58.971h-6.97  v-1.463h6.97V58.971z M21.68,56.508h-8.525v-1.462h8.525V56.508z M30.206,54.046H13.155v-1.462h17.051V54.046z M33.486,51.584  H13.155v-1.463h20.331V51.584z M46.37,49.121H18.351v-1.462H46.37V49.121z M51.529,44.196H18.351v-1.462h33.178V44.196z   M56.697,44.196h-4.17v-1.462h4.17V44.196z"/>
<polygon points="76.779,59.389 76.779,44.737 65.256,44.737 65.256,59.389 65.256,59.391 76.779,59.391 "/>
<path d="M94.934,11.854H51.053h-1.495H5.677c-1.563,0-2.91,1.189-2.91,2.752V68.7v0.188V73.9v0.313c0,1.563,1.347,2.877,2.91,2.877  h35.146c-0.041,0.896-0.321,4.756-2.155,6.623c-1.445,1.475-3.453,2.854-2.669,3.563c0.19,0.437,1.091,0.688,3.14,0.688  c4.521,0,9.416,0,11.208,0c0.453,0,0.708,0,0.708,0c1.791,0,6.688,0,11.207,0c2.334,0,3.149-0.383,3.157-0.952h-0.08v-0.189h-0.082  c-0.104-0.77-1.661-1.906-2.84-3.105c-1.834-1.867-2.112-5.725-2.153-6.621h34.674c1.563,0,2.83-1.314,2.83-2.879v-0.313v-5.012  v-0.188V14.607C97.766,13.042,96.497,11.854,94.934,11.854z M50.266,74.35c-1.021,0-1.847-0.824-1.847-1.846  c0-1.02,0.826-1.846,1.847-1.846c1.02,0,1.847,0.826,1.847,1.846C52.113,73.525,51.285,74.35,50.266,74.35z M93.76,64.695H61.83  H6.773V15.67H61.83h31.93V64.695z"/>
<rect x="65.256" y="21.154" width="25.047" height="4.925"/>
<rect x="65.256" y="28.085" width="11.523" height="14.652"/>
<rect x="78.779" y="28.085" width="11.523" height="14.652"/>
<polygon points="78.779,59.389 78.779,59.391 90.303,59.391 90.303,59.389 90.303,44.737 78.779,44.737 "/>
</svg>