<?xml version="1.0" encoding="utf-8"?>
<!-- Generator: Adobe Illustrator 16.0.0, SVG Export Plug-In . SVG Version: 6.00 Build 0)  -->
<!DOCTYPE svg PUBLIC "-//W3C//DTD SVG 1.1//EN" "http://www.w3.org/Graphics/SVG/1.1/DTD/svg11.dtd">
<svg version="1.1" id="Layer_1" xmlns="http://www.w3.org/2000/svg" xmlns:xlink="http://www.w3.org/1999/xlink" x="0px" y="0px"
	 width="83.193px" height="100px" viewBox="7.587 -0.715 83.193 100" enable-background="new 7.587 -0.715 83.193 100"
	 xml:space="preserve">
<path d="M45.539,58.741l1.324-9.566c-0.124-0.109-0.238-0.215-0.35-0.318l-8.278,15.306l7.375,0.001
	c-0.644-0.735-1.034-1.698-1.034-2.751C44.577,60.398,44.938,59.468,45.539,58.741z"/>
<path d="M51.116,46.644c0.006-0.023,0-0.033-0.004-0.036c-0.021-0.117-0.11-0.244-0.244-0.361c-1.034,0.414-2.157,0.649-3.334,0.669
	c-0.049,0.118-0.102,0.236-0.163,0.35l-0.174,0.322L47,47.954c0.164,0.161,0.355,0.34,0.584,0.539l0.33,0.285l-1.248,9.008
	c0.621-0.361,1.339-0.572,2.109-0.572h1.886l-1.305-8.448l0.32-0.289C50.967,47.33,51.104,46.779,51.116,46.644z"/>
<path d="M40.893,41.95c0.033-0.026,0.066-0.049,0.103-0.073c0.169-0.12,0.351-0.229,0.532-0.319
	c0.028-0.016,0.056-0.029,0.086-0.044c0.039-0.021,0.077-0.038,0.116-0.056c0.181-0.077,0.375-0.146,0.562-0.195
	c0.052-0.014,0.105-0.027,0.154-0.037c0.197-0.046,0.401-0.078,0.606-0.096c0.022-0.003,0.043-0.006,0.065-0.007
	c0.038-0.004,0.077-0.008,0.114-0.009l0,0c0.053-0.003,0.107-0.003,0.162-0.003c0.162,0,0.328,0.009,0.505,0.03
	c0.058,0.005,0.117,0.015,0.187,0.026c0.18,0.027,0.362,0.067,0.544,0.119c0.012,0.003,0.023,0.007,0.036,0.01l0.03,0.009
	c0.049,0.015,0.1,0.03,0.147,0.048c0.256,0.086,0.483,0.184,0.695,0.299c0.573,0.31,1.055,0.74,1.432,1.242
	c0.028,0.035,0.053,0.075,0.079,0.111c0.341,0.483,0.579,1.025,0.697,1.597c0.055,0.267,0.089,0.54,0.089,0.815
	c0.897-0.05,1.754-0.243,2.547-0.565c1.035-0.422,1.959-1.054,2.721-1.846c0.032-0.035,0.065-0.071,0.098-0.107
	c1.318-1.417,2.132-3.312,2.132-5.399c0-0.319-0.022-0.631-0.062-0.941c-0.435-3.675-3.379-6.582-7.076-6.956
	c-0.062-0.006-0.125-0.004-0.188-0.01c-0.206-0.016-0.413-0.031-0.623-0.031c0,0,0,0-0.001,0c-4.385,0-7.938,3.555-7.938,7.938
	c0,1.669,0.517,3.215,1.395,4.493C40.858,41.981,40.876,41.962,40.893,41.95z"/>
<path d="M66.968,60.212c-0.004-0.028-0.008-0.059-0.013-0.088c-0.022-0.146-0.055-0.289-0.094-0.427c0-0.002,0-0.004,0-0.006
	l-2.747-9.784c-0.658-2.303-3.385-6.22-8.05-6.898c-0.317-0.045-0.643-0.077-0.976-0.091c-0.021,0.031-0.046,0.059-0.067,0.091
	c-0.842,1.163-1.938,2.13-3.214,2.81c0.129,0.174,0.222,0.357,0.266,0.55c0.034,0.136,0.044,0.277,0.022,0.417
	c-0.079,0.639-0.63,1.412-1.677,2.36l1.248,8.068h5.539l-0.331-1.161c-0.151-0.523,0.153-1.072,0.678-1.226
	c0.524-0.15,1.073,0.156,1.225,0.679l0.938,3.188h-0.046h-2.04H51.9h-1.003h-2.116c-1.08,0-2.01,0.634-2.449,1.545
	c-0.171,0.355-0.269,0.753-0.269,1.176c0,0.167,0.017,0.33,0.046,0.489c0.177,0.971,0.869,1.76,1.783,2.077
	c0.279,0.096,0.578,0.151,0.89,0.151h0.705h14.057c1.911,0,3.463-1.55,3.463-3.463C67.004,60.514,66.986,60.361,66.968,60.212z"/>
<path d="M33.097,49.905l-1.73,8.934l8.401-15.537C35.94,44.467,33.688,47.84,33.097,49.905z"/>
<path d="M45.895,46.883l0.045-0.082l0.128-0.24c0.186-0.344,0.277-0.715,0.288-1.088v-0.001c0.001-0.035-0.005-0.07-0.005-0.106
	c-0.001-0.083-0.003-0.168-0.013-0.251c-0.097-0.834-0.607-1.631-1.425-2.109c-0.028-0.016-0.052-0.036-0.082-0.052
	c-0.044-0.023-0.089-0.042-0.134-0.062c-0.11-0.053-0.222-0.1-0.334-0.137c-0.046-0.016-0.092-0.028-0.137-0.043
	c-0.124-0.034-0.248-0.062-0.372-0.08c-0.04-0.006-0.08-0.016-0.119-0.02c-0.114-0.014-0.229-0.022-0.343-0.022
	c-0.034,0-0.066,0.001-0.1,0.002c-0.012,0-0.022,0.003-0.034,0.004c-0.022,0-0.045,0.005-0.066,0.007
	c-0.139,0.011-0.276,0.033-0.411,0.063c-0.028,0.008-0.058,0.013-0.088,0.021c-0.13,0.036-0.259,0.078-0.382,0.133
	c-0.014,0.005-0.026,0.013-0.038,0.019c-0.028,0.013-0.054,0.028-0.081,0.042c-0.018,0.008-0.033,0.021-0.05,0.028
	c-0.104,0.034-0.245,0.158-0.357,0.223c-0.115,0.087-0.222,0.189-0.32,0.298c-0.022,0.024-0.045,0.051-0.066,0.078
	c-0.022,0.027-0.042,0.061-0.063,0.088l-8.974,16.598c-0.68,1.256-0.125,2.871,1.236,3.606c0.025,0.013,0.05,0.021,0.074,0.032
	c0.13,0.066,0.262,0.12,0.396,0.166c0.045,0.016,0.09,0.028,0.136,0.041c0.124,0.035,0.249,0.064,0.374,0.082
	c0.04,0.007,0.078,0.016,0.116,0.021c0.115,0.013,0.232,0.021,0.348,0.021c0.032,0,0.064-0.001,0.095-0.002
	c0.012-0.001,0.022-0.003,0.034-0.003c0.022-0.002,0.044-0.007,0.066-0.007c0.139-0.012,0.276-0.034,0.41-0.066
	c0.03-0.006,0.059-0.013,0.088-0.019c0.145-0.04,0.287-0.09,0.421-0.152c0.028-0.015,0.055-0.029,0.082-0.042
	c0.097-0.05,0.191-0.105,0.282-0.167c0.022-0.013,0.045-0.027,0.066-0.044c0.017-0.013,0.035-0.021,0.051-0.034
	c0.118-0.089,0.226-0.195,0.327-0.305c0.023-0.024,0.046-0.053,0.067-0.079c0.025-0.028,0.045-0.066,0.069-0.1l8.377-15.492
	L45.895,46.883z"/>
<path d="M61.761,9.032c0,0-1.197-2.974-5.574-2.807c0,0-6.315,0.494-6.315,6.481c0,0,0.083,6.356,6.48,6.356
	c6.397,0,24.231,0,24.231,0s5.988,0.579,5.988-6.316c0,0,0.121-5.944-6.03-6.029c0,0-1.774-0.124-2.767,0.497
	c0,0-1.068-7.966-9.821-7.927c0,0-6.234-0.371-9.456,7.596"/>
<circle cx="62.496" cy="27.149" r="3.462"/>
<path d="M86.157,65.445H12.21H7.587v5.637h4.624v28.203h73.947V71.083h4.623v-5.638H86.157L86.157,65.445z"/>
</svg>
