<svg xmlns="http://www.w3.org/2000/svg" xmlns:xlink="http://www.w3.org/1999/xlink" version="1.1" id="Layer_1" x="0px" y="0px" width="68.333px" height="100px" viewBox="17.458 46.749 68.333 100" enable-background="new 17.458 46.749 68.333 100" xml:space="preserve">
<path d="M85.792,112.443c0,18.889-15.278,34.306-34.167,34.306s-34.167-15.417-34.167-34.306c0-8.611,2.917-16.527,8.195-22.639  l0.417-17.5c0-14.028,11.528-25.556,25.555-25.556c14.167,0,25.694,11.527,25.694,25.556v17.5  C82.598,95.916,85.792,103.832,85.792,112.443z M28.153,114.805h9.722l1.25-2.361l-1.25-2.639h-9.722V114.805z M40.931,121.332  l-0.278-2.639l-2.222-1.527l-8.333,4.86l2.361,4.167L40.931,121.332z M30.236,102.722l8.333,4.86l2.5-1.527l0.139-2.639  l-8.611-4.861L30.236,102.722z M36.903,81.888c8.889-4.166,19.722-4.306,29.583,0v-9.583c0-8.194-6.806-14.723-14.861-14.723  c-8.055,0-14.722,6.528-14.722,14.723V81.888z M46.764,125.776l-1.389-2.5l-2.639-0.139l-5,8.473l4.167,2.361L46.764,125.776z   M47.042,99.388l-4.861-8.611l-4.167,2.5l4.861,8.473l2.639-0.139L47.042,99.388z M53.986,126.332l-2.5-1.25l-2.361,1.25v9.723  h4.861V126.332z M54.403,89.11h-5v9.722l2.5,1.25l2.5-1.25V89.11z M60.514,123.276l-2.639,0.278l-1.527,2.361l4.86,8.194  l4.306-2.361L60.514,123.276z M65.653,93.555l-4.028-2.5l-5,8.472l1.528,2.223l2.639,0.139L65.653,93.555z M64.681,117.582  l-2.223,1.528l-0.139,2.777l8.611,4.723l2.361-4.167L64.681,117.582z M62.598,103.693l0.139,2.639l2.222,1.528l8.473-4.861  l-2.361-4.167L62.598,103.693z M75.236,110.222h-9.583l-1.39,2.5l1.39,2.36h9.583V110.222z"/>
</svg>